<?xml version="1.0" standalone="no"?>
<!DOCTYPE svg PUBLIC "-//W3C//DTD SVG 20010904//EN"
 "http://www.w3.org/TR/2001/REC-SVG-20010904/DTD/svg10.dtd">
<svg version="1.0" xmlns="http://www.w3.org/2000/svg"
 width="287.000000pt" height="355.000000pt" viewBox="0 0 287.000000 355.000000"
 preserveAspectRatio="xMidYMid meet">

<g transform="translate(0.000000,355.000000) scale(0.100000,-0.100000)"
fill="#000000" stroke="none">
<path d="M227 2102 c-11 -11 -17 -36 -17 -63 0 -24 -7 -82 -15 -129 -16 -87
-41 -330 -54 -523 -4 -60 -4 -159 0 -219 9 -116 23 -156 61 -166 11 -3 21 -16
25 -34 7 -38 26 -45 67 -25 29 13 40 33 106 189 64 151 148 329 194 408 8 14
40 72 71 129 31 58 91 159 132 224 91 146 98 162 82 199 -16 38 -53 37 -87 -2
-76 -86 -282 -469 -442 -820 -70 -153 -78 -166 -94 -150 -25 25 -2 485 34 694
25 141 29 268 11 290 -18 21 -54 20 -74 -2z"/>
<path d="M1907 2102 c-11 -11 -17 -36 -17 -63 0 -24 -7 -82 -15 -129 -16 -87
-41 -330 -54 -523 -4 -60 -4 -159 0 -219 9 -116 23 -156 61 -166 11 -3 21 -16
25 -34 7 -38 26 -45 67 -25 29 13 40 33 106 189 64 151 148 329 194 408 8 14
40 72 71 129 31 58 91 159 132 224 91 146 98 162 82 199 -16 38 -53 37 -87 -2
-76 -86 -282 -469 -442 -820 -70 -153 -78 -166 -94 -150 -25 25 -2 485 34 694
25 141 29 268 11 290 -18 21 -54 20 -74 -2z"/>
<path d="M1671 2033 c-7 -27 -41 -124 -77 -218 -36 -93 -74 -199 -85 -235 -12
-36 -25 -74 -31 -84 -16 -30 -57 -153 -78 -238 -31 -121 -23 -210 20 -221 29
-7 35 4 47 88 23 159 118 432 254 728 56 124 62 171 26 205 -39 37 -63 29 -76
-25z"/>
<path d="M2663 1884 c-7 -3 -13 -14 -13 -24 0 -10 -12 -32 -26 -49 -24 -29
-25 -34 -14 -61 25 -61 82 -46 125 34 18 33 18 35 -1 67 -19 32 -44 44 -71 33z"/>
<path d="M985 1633 c-53 -27 -115 -95 -182 -198 -96 -147 -140 -255 -123 -300
41 -108 161 -80 326 77 l91 88 17 -44 c35 -92 129 -167 190 -152 51 13 42 61
-13 76 -91 24 -128 150 -81 271 12 28 19 52 18 53 -2 1 -38 35 -80 74 -83 78
-106 85 -163 55z m89 -99 c38 -38 39 -52 2 -107 -40 -60 -172 -193 -230 -231
-37 -25 -76 -34 -76 -18 1 19 103 197 143 250 52 67 111 122 132 122 7 0 21
-7 29 -16z"/>
<path d="M2557 1503 c-12 -20 -91 -264 -101 -313 -15 -65 -5 -115 25 -131 27
-14 32 -7 59 86 12 39 39 120 61 180 44 124 45 132 23 163 -14 21 -58 30 -67
15z"/>
</g>
</svg>
