<?xml version="1.0" standalone="no"?>
<!DOCTYPE svg PUBLIC "-//W3C//DTD SVG 20010904//EN"
 "http://www.w3.org/TR/2001/REC-SVG-20010904/DTD/svg10.dtd">
<svg version="1.0" xmlns="http://www.w3.org/2000/svg"
 width="300.000000pt" height="300.000000pt" viewBox="0 0 300.000000 300.000000"
 preserveAspectRatio="xMidYMid meet">

<g transform="translate(0.000000,300.000000) scale(0.100000,-0.100000)"
fill="#000000" stroke="none">
<path d="M1348 2763 c-32 -20 -43 -41 -102 -193 -24 -63 -67 -174 -95 -246
-28 -71 -51 -135 -51 -140 0 -6 -8 -19 -19 -28 -15 -13 -58 -20 -207 -32 -358
-28 -406 -33 -430 -49 -60 -39 -76 -122 -33 -174 21 -26 355 -328 430 -389 16
-13 29 -33 29 -44 0 -19 -67 -317 -122 -540 -21 -84 -21 -90 -5 -123 9 -19 31
-44 49 -55 53 -32 94 -26 168 24 36 24 138 92 228 150 l162 106 0 45 c0 25 -2
45 -5 45 -3 0 -91 -57 -197 -126 -106 -70 -213 -139 -237 -155 -25 -16 -50
-29 -57 -29 -20 0 -45 31 -40 49 2 9 25 106 51 216 25 110 55 237 65 282 33
134 30 146 -42 217 -35 34 -143 132 -241 219 -154 137 -178 162 -175 185 4 34
22 38 216 51 322 22 394 30 426 49 24 14 39 38 67 108 45 108 48 117 89 224
18 47 38 99 44 115 7 17 24 59 37 93 41 109 79 105 123 -10 15 -40 37 -92 47
-115 10 -24 19 -46 19 -49 0 -7 69 -185 113 -294 38 -91 42 -92 477 -120 198
-13 215 -18 215 -56 0 -31 13 -18 -327 -323 -76 -67 -138 -126 -138 -131 0 -9
45 -40 57 -40 9 1 108 86 450 394 55 49 63 126 19 174 -40 45 -26 42 -460 76
-149 12 -192 19 -207 32 -11 9 -19 22 -19 28 0 9 -44 129 -70 191 -13 30 -56
141 -88 230 -44 119 -52 134 -87 155 -39 24 -91 25 -127 3z"/>
<path d="M1332 1737 c-10 -11 -8 -36 7 -113 19 -92 34 -172 96 -509 13 -71 38
-202 54 -290 17 -88 48 -256 70 -373 22 -117 43 -217 46 -223 18 -29 49 0 176
166 74 96 137 175 140 175 4 0 60 -81 125 -180 66 -99 127 -182 136 -185 22
-8 258 149 258 171 0 8 -55 96 -122 195 -88 130 -119 182 -109 188 6 4 101 32
209 61 108 29 203 57 210 63 26 21 7 41 -115 121 -128 83 -561 364 -938 609
-110 72 -207 132 -216 134 -8 3 -21 -2 -27 -10z m423 -317 c105 -68 267 -173
360 -234 94 -62 223 -145 287 -186 65 -41 118 -77 118 -80 0 -3 -71 -25 -157
-48 -87 -24 -176 -49 -197 -56 -74 -23 -73 -27 68 -236 71 -105 127 -192 125
-194 -20 -19 -153 -105 -158 -102 -3 2 -62 88 -131 190 -103 154 -129 186
-146 184 -15 -2 -64 -57 -150 -168 -110 -140 -129 -161 -132 -140 -2 14 -26
144 -53 290 -52 273 -94 503 -130 695 -11 61 -29 154 -39 209 -11 54 -20 100
-20 102 0 4 17 -7 355 -226z"/>
</g>
</svg>
